<mxfile host="app.diagrams.net" modified="2020-11-13T02:42:17.416Z" agent="5.0 (Windows NT 10.0; WOW64) AppleWebKit/537.36 (KHTML, like Gecko) Chrome/70.0.3538.67 Safari/537.36" etag="9PdKOFqapm7lIl_ZU7Sc" version="13.9.3" type="github">
  <diagram name="Page-1" id="9f46799a-70d6-7492-0946-bef42562c5a5">
    <mxGraphModel dx="1422" dy="763" grid="1" gridSize="10" guides="1" tooltips="1" connect="1" arrows="1" fold="1" page="1" pageScale="1" pageWidth="1100" pageHeight="850" background="#ffffff" math="0" shadow="0">
      <root>
        <mxCell id="0" />
        <mxCell id="1" parent="0" />
        <mxCell id="uAUE-mV1pB7TqudJlasZ-59" value="解析drug bank" style="rounded=1;arcSize=10;whiteSpace=wrap;html=1;align=center;" vertex="1" parent="1">
          <mxGeometry x="450" y="130" width="100" height="40" as="geometry" />
        </mxCell>
        <mxCell id="uAUE-mV1pB7TqudJlasZ-154" style="edgeStyle=orthogonalEdgeStyle;rounded=0;orthogonalLoop=1;jettySize=auto;html=1;exitX=0.5;exitY=1;exitDx=0;exitDy=0;" edge="1" parent="1" source="uAUE-mV1pB7TqudJlasZ-60" target="uAUE-mV1pB7TqudJlasZ-106">
          <mxGeometry relative="1" as="geometry" />
        </mxCell>
        <mxCell id="uAUE-mV1pB7TqudJlasZ-155" value="更新、新增" style="edgeLabel;html=1;align=center;verticalAlign=middle;resizable=0;points=[];" vertex="1" connectable="0" parent="uAUE-mV1pB7TqudJlasZ-154">
          <mxGeometry x="-0.1882" y="2" relative="1" as="geometry">
            <mxPoint as="offset" />
          </mxGeometry>
        </mxCell>
        <mxCell id="uAUE-mV1pB7TqudJlasZ-60" value="sequence" style="ellipse;whiteSpace=wrap;html=1;align=center;fontStyle=4;" vertex="1" parent="1">
          <mxGeometry x="160" y="280" width="100" height="40" as="geometry" />
        </mxCell>
        <mxCell id="uAUE-mV1pB7TqudJlasZ-146" value="cas_number查询，cas_number即registry_number" style="edgeStyle=orthogonalEdgeStyle;rounded=0;orthogonalLoop=1;jettySize=auto;html=1;exitX=0.5;exitY=1;exitDx=0;exitDy=0;entryX=0.5;entryY=0;entryDx=0;entryDy=0;" edge="1" parent="1" source="uAUE-mV1pB7TqudJlasZ-61" target="uAUE-mV1pB7TqudJlasZ-133">
          <mxGeometry relative="1" as="geometry" />
        </mxCell>
        <mxCell id="uAUE-mV1pB7TqudJlasZ-61" value="other" style="ellipse;whiteSpace=wrap;html=1;align=center;fontStyle=4;" vertex="1" parent="1">
          <mxGeometry x="450" y="280" width="100" height="40" as="geometry" />
        </mxCell>
        <mxCell id="uAUE-mV1pB7TqudJlasZ-77" style="edgeStyle=orthogonalEdgeStyle;rounded=0;orthogonalLoop=1;jettySize=auto;html=1;exitX=0.5;exitY=1;exitDx=0;exitDy=0;entryX=0.5;entryY=0;entryDx=0;entryDy=0;" edge="1" parent="1" source="uAUE-mV1pB7TqudJlasZ-62" target="uAUE-mV1pB7TqudJlasZ-81">
          <mxGeometry relative="1" as="geometry">
            <mxPoint x="815" y="480" as="targetPoint" />
          </mxGeometry>
        </mxCell>
        <mxCell id="uAUE-mV1pB7TqudJlasZ-78" value="更新" style="edgeLabel;html=1;align=center;verticalAlign=middle;resizable=0;points=[];" vertex="1" connectable="0" parent="uAUE-mV1pB7TqudJlasZ-77">
          <mxGeometry x="-0.2" y="3" relative="1" as="geometry">
            <mxPoint as="offset" />
          </mxGeometry>
        </mxCell>
        <mxCell id="uAUE-mV1pB7TqudJlasZ-62" value="chemical" style="ellipse;whiteSpace=wrap;html=1;align=center;fontStyle=4;" vertex="1" parent="1">
          <mxGeometry x="740" y="280" width="100" height="40" as="geometry" />
        </mxCell>
        <mxCell id="uAUE-mV1pB7TqudJlasZ-70" value="" style="endArrow=classic;html=1;exitX=0.5;exitY=1;exitDx=0;exitDy=0;entryX=0.5;entryY=0;entryDx=0;entryDy=0;" edge="1" parent="1" source="uAUE-mV1pB7TqudJlasZ-59" target="uAUE-mV1pB7TqudJlasZ-60">
          <mxGeometry width="50" height="50" relative="1" as="geometry">
            <mxPoint x="250" y="270" as="sourcePoint" />
            <mxPoint x="210" y="270" as="targetPoint" />
          </mxGeometry>
        </mxCell>
        <mxCell id="uAUE-mV1pB7TqudJlasZ-71" value="有序列号" style="edgeLabel;html=1;align=center;verticalAlign=middle;resizable=0;points=[];" vertex="1" connectable="0" parent="uAUE-mV1pB7TqudJlasZ-70">
          <mxGeometry x="0.3277" y="-1" relative="1" as="geometry">
            <mxPoint y="-1" as="offset" />
          </mxGeometry>
        </mxCell>
        <mxCell id="uAUE-mV1pB7TqudJlasZ-72" value="" style="endArrow=classic;html=1;entryX=0.5;entryY=0;entryDx=0;entryDy=0;" edge="1" parent="1" target="uAUE-mV1pB7TqudJlasZ-61">
          <mxGeometry width="50" height="50" relative="1" as="geometry">
            <mxPoint x="500" y="170" as="sourcePoint" />
            <mxPoint x="550" y="190" as="targetPoint" />
          </mxGeometry>
        </mxCell>
        <mxCell id="uAUE-mV1pB7TqudJlasZ-73" value="没有序列号和inchi_key" style="edgeLabel;html=1;align=center;verticalAlign=middle;resizable=0;points=[];" vertex="1" connectable="0" parent="uAUE-mV1pB7TqudJlasZ-72">
          <mxGeometry x="-0.2545" y="3" relative="1" as="geometry">
            <mxPoint as="offset" />
          </mxGeometry>
        </mxCell>
        <mxCell id="uAUE-mV1pB7TqudJlasZ-75" value="" style="endArrow=classic;html=1;entryX=0.5;entryY=0;entryDx=0;entryDy=0;exitX=0.5;exitY=1;exitDx=0;exitDy=0;" edge="1" parent="1" source="uAUE-mV1pB7TqudJlasZ-59" target="uAUE-mV1pB7TqudJlasZ-62">
          <mxGeometry width="50" height="50" relative="1" as="geometry">
            <mxPoint x="680" y="270" as="sourcePoint" />
            <mxPoint x="730" y="220" as="targetPoint" />
          </mxGeometry>
        </mxCell>
        <mxCell id="uAUE-mV1pB7TqudJlasZ-76" value="有inchi_key" style="edgeLabel;html=1;align=center;verticalAlign=middle;resizable=0;points=[];" vertex="1" connectable="0" parent="uAUE-mV1pB7TqudJlasZ-75">
          <mxGeometry x="-0.1351" y="2" relative="1" as="geometry">
            <mxPoint as="offset" />
          </mxGeometry>
        </mxCell>
        <mxCell id="uAUE-mV1pB7TqudJlasZ-81" value="patsnap_chemical" style="shape=table;startSize=30;container=1;collapsible=1;childLayout=tableLayout;fixedRows=1;rowLines=0;fontStyle=1;align=center;resizeLast=1;" vertex="1" parent="1">
          <mxGeometry x="695" y="490" width="190" height="200" as="geometry" />
        </mxCell>
        <mxCell id="uAUE-mV1pB7TqudJlasZ-82" value="" style="shape=partialRectangle;collapsible=0;dropTarget=0;pointerEvents=0;fillColor=none;top=0;left=0;bottom=1;right=0;points=[[0,0.5],[1,0.5]];portConstraint=eastwest;" vertex="1" parent="uAUE-mV1pB7TqudJlasZ-81">
          <mxGeometry y="30" width="190" height="30" as="geometry" />
        </mxCell>
        <mxCell id="uAUE-mV1pB7TqudJlasZ-83" value="PK" style="shape=partialRectangle;connectable=0;fillColor=none;top=0;left=0;bottom=0;right=0;fontStyle=1;overflow=hidden;" vertex="1" parent="uAUE-mV1pB7TqudJlasZ-82">
          <mxGeometry width="30" height="30" as="geometry" />
        </mxCell>
        <mxCell id="uAUE-mV1pB7TqudJlasZ-84" value="inchi_key" style="shape=partialRectangle;connectable=0;fillColor=none;top=0;left=0;bottom=0;right=0;align=left;spacingLeft=6;fontStyle=5;overflow=hidden;" vertex="1" parent="uAUE-mV1pB7TqudJlasZ-82">
          <mxGeometry x="30" width="160" height="30" as="geometry" />
        </mxCell>
        <mxCell id="uAUE-mV1pB7TqudJlasZ-85" value="" style="shape=partialRectangle;collapsible=0;dropTarget=0;pointerEvents=0;fillColor=none;top=0;left=0;bottom=0;right=0;points=[[0,0.5],[1,0.5]];portConstraint=eastwest;" vertex="1" parent="uAUE-mV1pB7TqudJlasZ-81">
          <mxGeometry y="60" width="190" height="20" as="geometry" />
        </mxCell>
        <mxCell id="uAUE-mV1pB7TqudJlasZ-86" value="" style="shape=partialRectangle;connectable=0;fillColor=none;top=0;left=0;bottom=0;right=0;editable=1;overflow=hidden;" vertex="1" parent="uAUE-mV1pB7TqudJlasZ-85">
          <mxGeometry width="30" height="20" as="geometry" />
        </mxCell>
        <mxCell id="uAUE-mV1pB7TqudJlasZ-87" value="chemical_source" style="shape=partialRectangle;connectable=0;fillColor=none;top=0;left=0;bottom=0;right=0;align=left;spacingLeft=6;overflow=hidden;" vertex="1" parent="uAUE-mV1pB7TqudJlasZ-85">
          <mxGeometry x="30" width="160" height="20" as="geometry" />
        </mxCell>
        <mxCell id="uAUE-mV1pB7TqudJlasZ-88" value="" style="shape=partialRectangle;collapsible=0;dropTarget=0;pointerEvents=0;fillColor=none;top=0;left=0;bottom=0;right=0;points=[[0,0.5],[1,0.5]];portConstraint=eastwest;" vertex="1" parent="uAUE-mV1pB7TqudJlasZ-81">
          <mxGeometry y="80" width="190" height="20" as="geometry" />
        </mxCell>
        <mxCell id="uAUE-mV1pB7TqudJlasZ-89" value="" style="shape=partialRectangle;connectable=0;fillColor=none;top=0;left=0;bottom=0;right=0;editable=1;overflow=hidden;" vertex="1" parent="uAUE-mV1pB7TqudJlasZ-88">
          <mxGeometry width="30" height="20" as="geometry" />
        </mxCell>
        <mxCell id="uAUE-mV1pB7TqudJlasZ-90" value="chemical_source_db" style="shape=partialRectangle;connectable=0;fillColor=none;top=0;left=0;bottom=0;right=0;align=left;spacingLeft=6;overflow=hidden;" vertex="1" parent="uAUE-mV1pB7TqudJlasZ-88">
          <mxGeometry x="30" width="160" height="20" as="geometry" />
        </mxCell>
        <mxCell id="uAUE-mV1pB7TqudJlasZ-91" value="" style="shape=partialRectangle;collapsible=0;dropTarget=0;pointerEvents=0;fillColor=none;top=0;left=0;bottom=0;right=0;points=[[0,0.5],[1,0.5]];portConstraint=eastwest;" vertex="1" parent="uAUE-mV1pB7TqudJlasZ-81">
          <mxGeometry y="100" width="190" height="20" as="geometry" />
        </mxCell>
        <mxCell id="uAUE-mV1pB7TqudJlasZ-92" value="" style="shape=partialRectangle;connectable=0;fillColor=none;top=0;left=0;bottom=0;right=0;editable=1;overflow=hidden;" vertex="1" parent="uAUE-mV1pB7TqudJlasZ-91">
          <mxGeometry width="30" height="20" as="geometry" />
        </mxCell>
        <mxCell id="uAUE-mV1pB7TqudJlasZ-93" value="is_drug" style="shape=partialRectangle;connectable=0;fillColor=none;top=0;left=0;bottom=0;right=0;align=left;spacingLeft=6;overflow=hidden;" vertex="1" parent="uAUE-mV1pB7TqudJlasZ-91">
          <mxGeometry x="30" width="160" height="20" as="geometry" />
        </mxCell>
        <mxCell id="uAUE-mV1pB7TqudJlasZ-97" value="" style="shape=partialRectangle;collapsible=0;dropTarget=0;pointerEvents=0;fillColor=none;top=0;left=0;bottom=0;right=0;points=[[0,0.5],[1,0.5]];portConstraint=eastwest;" vertex="1" parent="uAUE-mV1pB7TqudJlasZ-81">
          <mxGeometry y="120" width="190" height="20" as="geometry" />
        </mxCell>
        <mxCell id="uAUE-mV1pB7TqudJlasZ-98" value="" style="shape=partialRectangle;connectable=0;fillColor=none;top=0;left=0;bottom=0;right=0;editable=1;overflow=hidden;" vertex="1" parent="uAUE-mV1pB7TqudJlasZ-97">
          <mxGeometry width="30" height="20" as="geometry" />
        </mxCell>
        <mxCell id="uAUE-mV1pB7TqudJlasZ-99" value="substance_name_PT4" style="shape=partialRectangle;connectable=0;fillColor=none;top=0;left=0;bottom=0;right=0;align=left;spacingLeft=6;overflow=hidden;" vertex="1" parent="uAUE-mV1pB7TqudJlasZ-97">
          <mxGeometry x="30" width="160" height="20" as="geometry" />
        </mxCell>
        <mxCell id="uAUE-mV1pB7TqudJlasZ-100" value="" style="shape=partialRectangle;collapsible=0;dropTarget=0;pointerEvents=0;fillColor=none;top=0;left=0;bottom=0;right=0;points=[[0,0.5],[1,0.5]];portConstraint=eastwest;" vertex="1" parent="uAUE-mV1pB7TqudJlasZ-81">
          <mxGeometry y="140" width="190" height="20" as="geometry" />
        </mxCell>
        <mxCell id="uAUE-mV1pB7TqudJlasZ-101" value="" style="shape=partialRectangle;connectable=0;fillColor=none;top=0;left=0;bottom=0;right=0;editable=1;overflow=hidden;" vertex="1" parent="uAUE-mV1pB7TqudJlasZ-100">
          <mxGeometry width="30" height="20" as="geometry" />
        </mxCell>
        <mxCell id="uAUE-mV1pB7TqudJlasZ-102" value="substance_name_PT5" style="shape=partialRectangle;connectable=0;fillColor=none;top=0;left=0;bottom=0;right=0;align=left;spacingLeft=6;overflow=hidden;" vertex="1" parent="uAUE-mV1pB7TqudJlasZ-100">
          <mxGeometry x="30" width="160" height="20" as="geometry" />
        </mxCell>
        <mxCell id="uAUE-mV1pB7TqudJlasZ-103" value="" style="shape=partialRectangle;collapsible=0;dropTarget=0;pointerEvents=0;fillColor=none;top=0;left=0;bottom=0;right=0;points=[[0,0.5],[1,0.5]];portConstraint=eastwest;" vertex="1" parent="uAUE-mV1pB7TqudJlasZ-81">
          <mxGeometry y="160" width="190" height="20" as="geometry" />
        </mxCell>
        <mxCell id="uAUE-mV1pB7TqudJlasZ-104" value="" style="shape=partialRectangle;connectable=0;fillColor=none;top=0;left=0;bottom=0;right=0;editable=1;overflow=hidden;" vertex="1" parent="uAUE-mV1pB7TqudJlasZ-103">
          <mxGeometry width="30" height="20" as="geometry" />
        </mxCell>
        <mxCell id="uAUE-mV1pB7TqudJlasZ-105" value="drug_id" style="shape=partialRectangle;connectable=0;fillColor=none;top=0;left=0;bottom=0;right=0;align=left;spacingLeft=6;overflow=hidden;" vertex="1" parent="uAUE-mV1pB7TqudJlasZ-103">
          <mxGeometry x="30" width="160" height="20" as="geometry" />
        </mxCell>
        <mxCell id="uAUE-mV1pB7TqudJlasZ-156" value="" style="shape=partialRectangle;collapsible=0;dropTarget=0;pointerEvents=0;fillColor=none;top=0;left=0;bottom=0;right=0;points=[[0,0.5],[1,0.5]];portConstraint=eastwest;" vertex="1" parent="uAUE-mV1pB7TqudJlasZ-81">
          <mxGeometry y="180" width="190" height="20" as="geometry" />
        </mxCell>
        <mxCell id="uAUE-mV1pB7TqudJlasZ-157" value="" style="shape=partialRectangle;connectable=0;fillColor=none;top=0;left=0;bottom=0;right=0;editable=1;overflow=hidden;" vertex="1" parent="uAUE-mV1pB7TqudJlasZ-156">
          <mxGeometry width="30" height="20" as="geometry" />
        </mxCell>
        <mxCell id="uAUE-mV1pB7TqudJlasZ-158" value="cas_no" style="shape=partialRectangle;connectable=0;fillColor=none;top=0;left=0;bottom=0;right=0;align=left;spacingLeft=6;overflow=hidden;" vertex="1" parent="uAUE-mV1pB7TqudJlasZ-156">
          <mxGeometry x="30" width="160" height="20" as="geometry" />
        </mxCell>
        <mxCell id="uAUE-mV1pB7TqudJlasZ-106" value="bio_sequence_metadata" style="shape=table;startSize=30;container=1;collapsible=1;childLayout=tableLayout;fixedRows=1;rowLines=0;fontStyle=1;align=center;resizeLast=1;" vertex="1" parent="1">
          <mxGeometry x="115" y="490" width="190" height="200" as="geometry" />
        </mxCell>
        <mxCell id="uAUE-mV1pB7TqudJlasZ-107" value="" style="shape=partialRectangle;collapsible=0;dropTarget=0;pointerEvents=0;fillColor=none;top=0;left=0;bottom=1;right=0;points=[[0,0.5],[1,0.5]];portConstraint=eastwest;" vertex="1" parent="uAUE-mV1pB7TqudJlasZ-106">
          <mxGeometry y="30" width="190" height="30" as="geometry" />
        </mxCell>
        <mxCell id="uAUE-mV1pB7TqudJlasZ-108" value="PK" style="shape=partialRectangle;connectable=0;fillColor=none;top=0;left=0;bottom=0;right=0;fontStyle=1;overflow=hidden;" vertex="1" parent="uAUE-mV1pB7TqudJlasZ-107">
          <mxGeometry width="30" height="30" as="geometry" />
        </mxCell>
        <mxCell id="uAUE-mV1pB7TqudJlasZ-109" value="sequence_number" style="shape=partialRectangle;connectable=0;fillColor=none;top=0;left=0;bottom=0;right=0;align=left;spacingLeft=6;fontStyle=5;overflow=hidden;" vertex="1" parent="uAUE-mV1pB7TqudJlasZ-107">
          <mxGeometry x="30" width="160" height="30" as="geometry" />
        </mxCell>
        <mxCell id="uAUE-mV1pB7TqudJlasZ-110" value="" style="shape=partialRectangle;collapsible=0;dropTarget=0;pointerEvents=0;fillColor=none;top=0;left=0;bottom=0;right=0;points=[[0,0.5],[1,0.5]];portConstraint=eastwest;" vertex="1" parent="uAUE-mV1pB7TqudJlasZ-106">
          <mxGeometry y="60" width="190" height="20" as="geometry" />
        </mxCell>
        <mxCell id="uAUE-mV1pB7TqudJlasZ-111" value="" style="shape=partialRectangle;connectable=0;fillColor=none;top=0;left=0;bottom=0;right=0;editable=1;overflow=hidden;" vertex="1" parent="uAUE-mV1pB7TqudJlasZ-110">
          <mxGeometry width="30" height="20" as="geometry" />
        </mxCell>
        <mxCell id="uAUE-mV1pB7TqudJlasZ-112" value="sequence_source" style="shape=partialRectangle;connectable=0;fillColor=none;top=0;left=0;bottom=0;right=0;align=left;spacingLeft=6;overflow=hidden;" vertex="1" parent="uAUE-mV1pB7TqudJlasZ-110">
          <mxGeometry x="30" width="160" height="20" as="geometry" />
        </mxCell>
        <mxCell id="uAUE-mV1pB7TqudJlasZ-113" value="" style="shape=partialRectangle;collapsible=0;dropTarget=0;pointerEvents=0;fillColor=none;top=0;left=0;bottom=0;right=0;points=[[0,0.5],[1,0.5]];portConstraint=eastwest;" vertex="1" parent="uAUE-mV1pB7TqudJlasZ-106">
          <mxGeometry y="80" width="190" height="20" as="geometry" />
        </mxCell>
        <mxCell id="uAUE-mV1pB7TqudJlasZ-114" value="" style="shape=partialRectangle;connectable=0;fillColor=none;top=0;left=0;bottom=0;right=0;editable=1;overflow=hidden;" vertex="1" parent="uAUE-mV1pB7TqudJlasZ-113">
          <mxGeometry width="30" height="20" as="geometry" />
        </mxCell>
        <mxCell id="uAUE-mV1pB7TqudJlasZ-115" value="sequence_source_db" style="shape=partialRectangle;connectable=0;fillColor=none;top=0;left=0;bottom=0;right=0;align=left;spacingLeft=6;overflow=hidden;" vertex="1" parent="uAUE-mV1pB7TqudJlasZ-113">
          <mxGeometry x="30" width="160" height="20" as="geometry" />
        </mxCell>
        <mxCell id="uAUE-mV1pB7TqudJlasZ-116" value="" style="shape=partialRectangle;collapsible=0;dropTarget=0;pointerEvents=0;fillColor=none;top=0;left=0;bottom=0;right=0;points=[[0,0.5],[1,0.5]];portConstraint=eastwest;" vertex="1" parent="uAUE-mV1pB7TqudJlasZ-106">
          <mxGeometry y="100" width="190" height="20" as="geometry" />
        </mxCell>
        <mxCell id="uAUE-mV1pB7TqudJlasZ-117" value="" style="shape=partialRectangle;connectable=0;fillColor=none;top=0;left=0;bottom=0;right=0;editable=1;overflow=hidden;" vertex="1" parent="uAUE-mV1pB7TqudJlasZ-116">
          <mxGeometry width="30" height="20" as="geometry" />
        </mxCell>
        <mxCell id="uAUE-mV1pB7TqudJlasZ-118" value="is_drug" style="shape=partialRectangle;connectable=0;fillColor=none;top=0;left=0;bottom=0;right=0;align=left;spacingLeft=6;overflow=hidden;" vertex="1" parent="uAUE-mV1pB7TqudJlasZ-116">
          <mxGeometry x="30" width="160" height="20" as="geometry" />
        </mxCell>
        <mxCell id="uAUE-mV1pB7TqudJlasZ-119" value="" style="shape=partialRectangle;collapsible=0;dropTarget=0;pointerEvents=0;fillColor=none;top=0;left=0;bottom=0;right=0;points=[[0,0.5],[1,0.5]];portConstraint=eastwest;" vertex="1" parent="uAUE-mV1pB7TqudJlasZ-106">
          <mxGeometry y="120" width="190" height="20" as="geometry" />
        </mxCell>
        <mxCell id="uAUE-mV1pB7TqudJlasZ-120" value="" style="shape=partialRectangle;connectable=0;fillColor=none;top=0;left=0;bottom=0;right=0;editable=1;overflow=hidden;" vertex="1" parent="uAUE-mV1pB7TqudJlasZ-119">
          <mxGeometry width="30" height="20" as="geometry" />
        </mxCell>
        <mxCell id="uAUE-mV1pB7TqudJlasZ-121" value="substance_name_PT1" style="shape=partialRectangle;connectable=0;fillColor=none;top=0;left=0;bottom=0;right=0;align=left;spacingLeft=6;overflow=hidden;" vertex="1" parent="uAUE-mV1pB7TqudJlasZ-119">
          <mxGeometry x="30" width="160" height="20" as="geometry" />
        </mxCell>
        <mxCell id="uAUE-mV1pB7TqudJlasZ-122" value="" style="shape=partialRectangle;collapsible=0;dropTarget=0;pointerEvents=0;fillColor=none;top=0;left=0;bottom=0;right=0;points=[[0,0.5],[1,0.5]];portConstraint=eastwest;" vertex="1" parent="uAUE-mV1pB7TqudJlasZ-106">
          <mxGeometry y="140" width="190" height="20" as="geometry" />
        </mxCell>
        <mxCell id="uAUE-mV1pB7TqudJlasZ-123" value="" style="shape=partialRectangle;connectable=0;fillColor=none;top=0;left=0;bottom=0;right=0;editable=1;overflow=hidden;" vertex="1" parent="uAUE-mV1pB7TqudJlasZ-122">
          <mxGeometry width="30" height="20" as="geometry" />
        </mxCell>
        <mxCell id="uAUE-mV1pB7TqudJlasZ-124" value="substance_name_synomyns" style="shape=partialRectangle;connectable=0;fillColor=none;top=0;left=0;bottom=0;right=0;align=left;spacingLeft=6;overflow=hidden;" vertex="1" parent="uAUE-mV1pB7TqudJlasZ-122">
          <mxGeometry x="30" width="160" height="20" as="geometry" />
        </mxCell>
        <mxCell id="uAUE-mV1pB7TqudJlasZ-125" value="" style="shape=partialRectangle;collapsible=0;dropTarget=0;pointerEvents=0;fillColor=none;top=0;left=0;bottom=0;right=0;points=[[0,0.5],[1,0.5]];portConstraint=eastwest;" vertex="1" parent="uAUE-mV1pB7TqudJlasZ-106">
          <mxGeometry y="160" width="190" height="20" as="geometry" />
        </mxCell>
        <mxCell id="uAUE-mV1pB7TqudJlasZ-126" value="" style="shape=partialRectangle;connectable=0;fillColor=none;top=0;left=0;bottom=0;right=0;editable=1;overflow=hidden;" vertex="1" parent="uAUE-mV1pB7TqudJlasZ-125">
          <mxGeometry width="30" height="20" as="geometry" />
        </mxCell>
        <mxCell id="uAUE-mV1pB7TqudJlasZ-127" value="drug_id" style="shape=partialRectangle;connectable=0;fillColor=none;top=0;left=0;bottom=0;right=0;align=left;spacingLeft=6;overflow=hidden;" vertex="1" parent="uAUE-mV1pB7TqudJlasZ-125">
          <mxGeometry x="30" width="160" height="20" as="geometry" />
        </mxCell>
        <mxCell id="uAUE-mV1pB7TqudJlasZ-130" value="" style="shape=partialRectangle;collapsible=0;dropTarget=0;pointerEvents=0;fillColor=none;top=0;left=0;bottom=0;right=0;points=[[0,0.5],[1,0.5]];portConstraint=eastwest;" vertex="1" parent="uAUE-mV1pB7TqudJlasZ-106">
          <mxGeometry y="180" width="190" height="20" as="geometry" />
        </mxCell>
        <mxCell id="uAUE-mV1pB7TqudJlasZ-131" value="" style="shape=partialRectangle;connectable=0;fillColor=none;top=0;left=0;bottom=0;right=0;editable=1;overflow=hidden;" vertex="1" parent="uAUE-mV1pB7TqudJlasZ-130">
          <mxGeometry width="30" height="20" as="geometry" />
        </mxCell>
        <mxCell id="uAUE-mV1pB7TqudJlasZ-132" value="sequence_type" style="shape=partialRectangle;connectable=0;fillColor=none;top=0;left=0;bottom=0;right=0;align=left;spacingLeft=6;overflow=hidden;" vertex="1" parent="uAUE-mV1pB7TqudJlasZ-130">
          <mxGeometry x="30" width="160" height="20" as="geometry" />
        </mxCell>
        <mxCell id="uAUE-mV1pB7TqudJlasZ-133" value="registry_number_document_uri" style="shape=table;startSize=30;container=1;collapsible=1;childLayout=tableLayout;fixedRows=1;rowLines=0;fontStyle=1;align=center;resizeLast=1;" vertex="1" parent="1">
          <mxGeometry x="390" y="425" width="220" height="100" as="geometry" />
        </mxCell>
        <mxCell id="uAUE-mV1pB7TqudJlasZ-134" value="" style="shape=partialRectangle;collapsible=0;dropTarget=0;pointerEvents=0;fillColor=none;top=0;left=0;bottom=1;right=0;points=[[0,0.5],[1,0.5]];portConstraint=eastwest;" vertex="1" parent="uAUE-mV1pB7TqudJlasZ-133">
          <mxGeometry y="30" width="220" height="30" as="geometry" />
        </mxCell>
        <mxCell id="uAUE-mV1pB7TqudJlasZ-135" value="PK" style="shape=partialRectangle;connectable=0;fillColor=none;top=0;left=0;bottom=0;right=0;fontStyle=1;overflow=hidden;" vertex="1" parent="uAUE-mV1pB7TqudJlasZ-134">
          <mxGeometry width="30" height="30" as="geometry" />
        </mxCell>
        <mxCell id="uAUE-mV1pB7TqudJlasZ-136" value="registry_number" style="shape=partialRectangle;connectable=0;fillColor=none;top=0;left=0;bottom=0;right=0;align=left;spacingLeft=6;fontStyle=5;overflow=hidden;" vertex="1" parent="uAUE-mV1pB7TqudJlasZ-134">
          <mxGeometry x="30" width="190" height="30" as="geometry" />
        </mxCell>
        <mxCell id="uAUE-mV1pB7TqudJlasZ-137" value="" style="shape=partialRectangle;collapsible=0;dropTarget=0;pointerEvents=0;fillColor=none;top=0;left=0;bottom=0;right=0;points=[[0,0.5],[1,0.5]];portConstraint=eastwest;" vertex="1" parent="uAUE-mV1pB7TqudJlasZ-133">
          <mxGeometry y="60" width="220" height="20" as="geometry" />
        </mxCell>
        <mxCell id="uAUE-mV1pB7TqudJlasZ-138" value="" style="shape=partialRectangle;connectable=0;fillColor=none;top=0;left=0;bottom=0;right=0;editable=1;overflow=hidden;" vertex="1" parent="uAUE-mV1pB7TqudJlasZ-137">
          <mxGeometry width="30" height="20" as="geometry" />
        </mxCell>
        <mxCell id="uAUE-mV1pB7TqudJlasZ-139" value="sequence_number" style="shape=partialRectangle;connectable=0;fillColor=none;top=0;left=0;bottom=0;right=0;align=left;spacingLeft=6;overflow=hidden;" vertex="1" parent="uAUE-mV1pB7TqudJlasZ-137">
          <mxGeometry x="30" width="190" height="20" as="geometry" />
        </mxCell>
        <mxCell id="uAUE-mV1pB7TqudJlasZ-140" value="" style="shape=partialRectangle;collapsible=0;dropTarget=0;pointerEvents=0;fillColor=none;top=0;left=0;bottom=0;right=0;points=[[0,0.5],[1,0.5]];portConstraint=eastwest;" vertex="1" parent="uAUE-mV1pB7TqudJlasZ-133">
          <mxGeometry y="80" width="220" height="20" as="geometry" />
        </mxCell>
        <mxCell id="uAUE-mV1pB7TqudJlasZ-141" value="" style="shape=partialRectangle;connectable=0;fillColor=none;top=0;left=0;bottom=0;right=0;editable=1;overflow=hidden;" vertex="1" parent="uAUE-mV1pB7TqudJlasZ-140">
          <mxGeometry width="30" height="20" as="geometry" />
        </mxCell>
        <mxCell id="uAUE-mV1pB7TqudJlasZ-142" value="inchi_key" style="shape=partialRectangle;connectable=0;fillColor=none;top=0;left=0;bottom=0;right=0;align=left;spacingLeft=6;overflow=hidden;" vertex="1" parent="uAUE-mV1pB7TqudJlasZ-140">
          <mxGeometry x="30" width="190" height="20" as="geometry" />
        </mxCell>
        <mxCell id="uAUE-mV1pB7TqudJlasZ-149" style="edgeStyle=orthogonalEdgeStyle;rounded=0;orthogonalLoop=1;jettySize=auto;html=1;exitX=1;exitY=0.5;exitDx=0;exitDy=0;entryX=0;entryY=0.5;entryDx=0;entryDy=0;" edge="1" parent="1" source="uAUE-mV1pB7TqudJlasZ-140" target="uAUE-mV1pB7TqudJlasZ-82">
          <mxGeometry relative="1" as="geometry" />
        </mxCell>
        <mxCell id="uAUE-mV1pB7TqudJlasZ-150" value="更新" style="edgeLabel;html=1;align=center;verticalAlign=middle;resizable=0;points=[];" vertex="1" connectable="0" parent="uAUE-mV1pB7TqudJlasZ-149">
          <mxGeometry x="-0.3217" y="-5" relative="1" as="geometry">
            <mxPoint as="offset" />
          </mxGeometry>
        </mxCell>
        <mxCell id="uAUE-mV1pB7TqudJlasZ-151" style="edgeStyle=orthogonalEdgeStyle;rounded=0;orthogonalLoop=1;jettySize=auto;html=1;exitX=0;exitY=0.5;exitDx=0;exitDy=0;entryX=1;entryY=0.5;entryDx=0;entryDy=0;" edge="1" parent="1" source="uAUE-mV1pB7TqudJlasZ-137" target="uAUE-mV1pB7TqudJlasZ-107">
          <mxGeometry relative="1" as="geometry" />
        </mxCell>
        <mxCell id="uAUE-mV1pB7TqudJlasZ-152" value="更新、新增" style="edgeLabel;html=1;align=center;verticalAlign=middle;resizable=0;points=[];" vertex="1" connectable="0" parent="uAUE-mV1pB7TqudJlasZ-151">
          <mxGeometry x="0.208" y="-1" relative="1" as="geometry">
            <mxPoint as="offset" />
          </mxGeometry>
        </mxCell>
      </root>
    </mxGraphModel>
  </diagram>
</mxfile>
